<?xml version="1.0" encoding="utf-8"?>
<!-- Generator: Adobe Illustrator 16.0.4, SVG Export Plug-In . SVG Version: 6.00 Build 0)  -->
<!DOCTYPE svg PUBLIC "-//W3C//DTD SVG 1.1//EN" "http://www.w3.org/Graphics/SVG/1.1/DTD/svg11.dtd">
<svg version="1.1" xmlns="http://www.w3.org/2000/svg" xmlns:xlink="http://www.w3.org/1999/xlink" x="0px" y="0px" width="294px"
	 height="167.58px" viewBox="0 0 294 167.58" enable-background="new 0 0 294 167.58" xml:space="preserve">
<g id="Layer_1" display="none">
	<g display="inline">
		<rect fill="#FFFFFF" width="294" height="167.58"/>
		<path fill="#CC6666" d="M106.065,83.787c0,16.297,9.471,30.385,23.207,37.059L109.631,67.03
			C107.347,72.15,106.065,77.818,106.065,83.787z M175.039,81.709c0-5.09-1.829-8.613-3.396-11.355
			c-2.087-3.394-4.043-6.264-4.043-9.658c0-3.785,2.869-7.308,6.914-7.308c0.184,0,0.356,0.022,0.533,0.033
			c-7.325-6.712-17.087-10.811-27.807-10.811c-14.385,0-27.041,7.382-34.404,18.559c0.968,0.032,1.879,0.051,2.65,0.051
			c4.307,0,10.976-0.524,10.976-0.524c2.219-0.13,2.479,3.131,0.263,3.394c0,0-2.232,0.261-4.711,0.391l14.993,44.604l9.011-27.025
			l-6.414-17.578c-2.219-0.129-4.318-0.391-4.318-0.391c-2.219-0.131-1.96-3.524,0.261-3.394c0,0,6.798,0.524,10.845,0.524
			c4.307,0,10.975-0.524,10.975-0.524c2.219-0.13,2.482,3.131,0.263,3.394c0,0-2.233,0.261-4.712,0.391l14.881,44.264l4.107-13.723
			C173.993,89.67,175.039,85.234,175.039,81.709z M147.965,87.389l-12.356,35.9c3.69,1.085,7.592,1.678,11.633,1.678
			c4.797,0,9.395-0.828,13.675-2.334c-0.108-0.177-0.212-0.364-0.294-0.568L147.965,87.389z M183.375,64.033
			c0.177,1.311,0.277,2.717,0.277,4.234c0,4.177-0.783,8.874-3.133,14.748l-12.576,36.363c12.243-7.138,20.475-20.399,20.475-35.591
			C188.418,76.627,186.588,69.897,183.375,64.033z"/>
		<g>
			<path fill="#CC6666" d="M99.241,83.787c0,26.469,21.533,48.002,48,48.002c26.469,0,48-21.533,48-48.002
				c0-26.467-21.531-47.999-48-47.999C120.774,35.789,99.241,57.32,99.241,83.787z M101.444,83.787
				c0-25.254,20.545-45.798,45.797-45.798s45.801,20.544,45.801,45.798s-20.549,45.801-45.801,45.801
				S101.444,109.041,101.444,83.787z"/>
		</g>
	</g>
</g>
<g id="Layer_3">
	<rect x="-0.083" y="0.365" fill="#FFFFFF" width="294" height="167.58"/>
	<g>
		<g>
			<polygon fill="#CC6666" points="131.537,40.423 131.537,36 120.99,36 120.99,48.929 131.537,48.929 131.537,44.506 
				125.412,44.506 125.412,40.423 			"/>
			<polygon fill="#CC6666" points="146.508,36 135.96,36 135.96,40.54 140.361,44.506 135.96,44.506 135.96,48.929 146.508,48.929 
				146.508,44.624 142.506,40.423 146.508,40.423 			"/>
			<polygon fill="#CC6666" points="161.818,36 151.271,36 151.271,40.54 155.502,44.506 151.271,44.506 151.271,48.929 
				161.818,48.929 161.818,44.624 157.646,40.423 161.818,40.423 			"/>
		</g>
		<polygon fill="#CC6666" points="113.572,124.285 107.38,54.831 175.428,54.831 169.229,124.274 141.362,132 		"/>
		<polygon fill="#FF9999" points="141.461,126.091 163.949,119.904 169.219,60.615 141.461,60.615 		"/>
		<polygon fill="#B3B3B3" points="121.555,86.133 122.301,94.638 141.461,86.133 141.461,77.612 		"/>
		<polygon fill="#E6E6E6" points="162.682,68.518 141.461,77.612 141.461,86.133 161.949,77.024 		"/>
		<polygon fill="#E6E6E6" points="141.461,108.387 141.396,108.397 131.893,105.846 131.272,99.061 122.721,99.061 123.914,112.428 
			141.393,117.267 141.461,117.251 		"/>
		<polygon fill="#FFFFFF" points="141.461,86.133 141.461,94.638 151.864,94.638 150.918,105.759 141.461,108.395 141.461,117.258 
			158.883,112.418 161.176,86.133 		"/>
		<polygon fill="#E6E6E6" points="141.461,86.133 121.555,86.133 122.301,94.638 141.461,94.638 		"/>
		<polygon fill="#E6E6E6" points="141.461,77.024 141.461,68.518 141.375,68.518 120.043,68.518 120.798,77.024 		"/>
		<polygon fill="#FFFFFF" points="141.461,68.518 141.461,76.917 141.461,77.024 161.949,77.024 162.682,68.518 		"/>
	</g>
</g>
<g id="Layer_2" display="none">
	<rect x="-0.083" y="0.365" display="inline" fill="#FFFFFF" width="294" height="167.58"/>
	<g display="inline">
		<polygon fill="#CC6666" points="181.016,52.691 146.917,52.691 146.917,52.691 112.816,52.691 119.207,122.021 146.917,129.876 
			146.917,129.876 146.917,129.876 146.917,129.876 146.917,129.876 174.615,122.021 		"/>
		<polygon opacity="0.6" fill="#FF9999" points="146.917,58.338 146.917,124.005 146.917,124.005 169.354,117.644 174.819,58.338 		
			"/>
		<polygon fill="#FFFFFF" points="164.769,66.846 130.256,66.846 127.857,92.805 127.908,92.642 157.225,92.642 156.268,103.622 
			146.917,106.318 137.422,103.582 136.853,96.937 128.233,96.937 129.465,110.216 146.917,115.172 164.368,110.216 166.77,84.155 
			135.662,84.155 136.059,75.465 157.65,75.465 157.968,80.439 166.664,80.439 		"/>
		<g>
			<path fill="#EBEAEA" d="M146.917,66.846h-16.661l-2.398,25.959l0.051-0.163h19.009v-8.486h-10.055l0.396-8.69h9.659V66.846z
				 M136.853,96.937h-8.619l1.231,13.279l17.452,4.945v-8.843l-9.495-2.736L136.853,96.937z"/>
		</g>
		<g>
			<polygon fill="#CC6666" points="140.28,42.464 134.215,42.464 134.215,46.82 140.28,46.82 143.527,46.82 144.625,46.82 
				144.625,33.876 140.28,33.876 			"/>
			<path fill="#CC6666" d="M159.618,33.942h-10.579c0,0,0,2.275,0,4.533c1.414,1.415,2.154,2.092,4.201,4.14
				c-1.197,0-4.201,0.004-4.201,0.004v4.135h10.579v-4.136l-4.226-4.143h4.226V33.942z"/>
		</g>
	</g>
</g>
</svg>
