<?xml version="1.0" encoding="utf-8"?>
<!-- Generator: Adobe Illustrator 16.0.4, SVG Export Plug-In . SVG Version: 6.00 Build 0)  -->
<!DOCTYPE svg PUBLIC "-//W3C//DTD SVG 1.1//EN" "http://www.w3.org/Graphics/SVG/1.1/DTD/svg11.dtd">
<svg version="1.1" id="Layer_1" xmlns="http://www.w3.org/2000/svg" xmlns:xlink="http://www.w3.org/1999/xlink" x="0px" y="0px"
	 width="294px" height="167.58px" viewBox="0 0 294 167.58" enable-background="new 0 0 294 167.58" xml:space="preserve">
<g>
	<rect fill="#FFFFFF" width="294" height="167.58"/>
	<g>
		<polygon fill="#FF461E" points="180.702,40.451 146.604,40.451 146.604,40.451 112.503,40.451 118.894,109.78 146.604,117.636 
			146.604,117.636 146.604,117.636 146.604,117.636 146.604,117.636 174.302,109.78 		"/>
		<polygon fill="#FF7728" points="146.604,46.098 146.604,111.765 146.604,111.765 169.041,105.403 174.506,46.098 		"/>
		<polygon fill="#FFFFFF" points="164.455,54.605 129.942,54.605 127.544,80.564 127.595,80.401 156.911,80.401 155.954,91.382 
			146.604,94.078 137.108,91.342 136.539,84.696 127.92,84.696 129.151,97.976 146.604,102.932 164.055,97.976 166.456,71.915 
			135.349,71.915 135.745,63.225 157.337,63.225 157.654,68.199 166.351,68.199 		"/>
		<g>
			<path fill="#EBEAEA" d="M146.604,54.605h-16.661l-2.398,25.959l0.051-0.163h19.009v-8.486h-10.055l0.396-8.69h9.659V54.605z
				 M136.539,84.696h-8.619l1.231,13.279l17.452,4.945v-8.843l-9.495-2.736L136.539,84.696z"/>
		</g>
		<g>
			<polygon fill="#FF461E" points="139.967,30.224 133.901,30.224 133.901,34.58 139.967,34.58 143.214,34.58 144.312,34.58 
				144.312,21.636 139.967,21.636 			"/>
			<path fill="#FF461E" d="M159.305,21.702h-10.579c0,0,0,2.275,0,4.533c1.414,1.415,2.154,2.092,4.201,4.14
				c-1.197,0-4.201,0.004-4.201,0.004v4.135h10.579v-4.136l-4.226-4.143h4.226V21.702z"/>
		</g>
	</g>
</g>
</svg>
