<?xml version="1.0" standalone="no"?>
<!DOCTYPE svg PUBLIC "-//W3C//DTD SVG 20010904//EN"
 "http://www.w3.org/TR/2001/REC-SVG-20010904/DTD/svg10.dtd">
<svg version="1.0" xmlns="http://www.w3.org/2000/svg"
 width="260.000000pt" height="260.000000pt" viewBox="0 0 260.000000 260.000000"
 preserveAspectRatio="xMidYMid meet">
<metadata>
Created by potrace 1.11, written by Peter Selinger 2001-2013
</metadata>
<g transform="translate(0.000000,260.000000) scale(0.100000,-0.100000)"
fill="#000000" stroke="none">
<path d="M0 1300 l0 -1300 1300 0 1300 0 0 1300 0 1300 -1300 0 -1300 0 0
-1300z m1027 519 c72 -24 150 -88 187 -153 19 -32 46 -122 46 -151 0 -3 -33
-5 -74 -5 -78 0 -86 5 -86 52 0 44 -48 105 -102 132 -74 37 -191 37 -264 1
-61 -30 -94 -82 -94 -147 0 -90 64 -141 250 -198 150 -47 227 -85 287 -145
133 -134 102 -347 -64 -438 -171 -93 -424 -66 -563 59 -44 40 -85 118 -95 182
l-7 42 75 0 75 0 11 -47 c16 -62 43 -97 99 -130 40 -24 60 -28 143 -31 111 -5
155 6 204 50 60 52 70 145 24 210 -26 36 -109 78 -224 113 -266 80 -373 182
-363 344 5 78 28 131 80 183 101 101 291 133 455 77z m505 -255 l3 -266 238
266 238 266 92 0 91 0 -30 -32 c-17 -18 -104 -116 -194 -218 -90 -102 -174
-197 -187 -211 l-23 -26 230 -302 c126 -167 230 -305 230 -307 0 -2 -39 -4
-87 -4 l-88 0 -175 231 c-96 127 -183 240 -192 252 l-17 22 -66 -65 -65 -64 0
-188 0 -188 -75 0 -75 0 0 550 0 550 75 0 75 0 2 -266z"/>
</g>
</svg>
