<?xml version="1.0" encoding="utf-8"?>
<!-- Generator: Adobe Illustrator 16.0.4, SVG Export Plug-In . SVG Version: 6.00 Build 0)  -->
<!DOCTYPE svg PUBLIC "-//W3C//DTD SVG 1.1//EN" "http://www.w3.org/Graphics/SVG/1.1/DTD/svg11.dtd">
<svg version="1.1" xmlns="http://www.w3.org/2000/svg" xmlns:xlink="http://www.w3.org/1999/xlink" x="0px" y="0px"
	 width="85.833px" height="44.687px" viewBox="208.167 0 85.833 44.687" enable-background="new 208.167 0 85.833 44.687"
	 xml:space="preserve">
<g id="Layer_1" display="none">
	<g id="Layer_1_2_">
		<g id="Layer_1_1_" display="inline">
			<g>
				<rect fill="#FFFFFF" width="294" height="167.58"/>
				<path fill="#CC6666" d="M106.065,83.787c0,16.297,9.471,30.385,23.207,37.06L109.631,67.03
					C107.347,72.15,106.065,77.818,106.065,83.787z M175.039,81.709c0-5.09-1.829-8.613-3.396-11.355
					c-2.086-3.394-4.043-6.264-4.043-9.658c0-3.785,2.869-7.308,6.914-7.308c0.186,0,0.356,0.022,0.533,0.033
					c-7.324-6.712-17.087-10.811-27.807-10.811c-14.385,0-27.041,7.382-34.404,18.559c0.968,0.032,1.879,0.051,2.65,0.051
					c4.307,0,10.976-0.524,10.976-0.524c2.219-0.13,2.479,3.131,0.263,3.394c0,0-2.232,0.261-4.711,0.391l14.993,44.604
					l9.011-27.025l-6.414-17.578c-2.219-0.129-4.318-0.391-4.318-0.391c-2.219-0.131-1.96-3.524,0.261-3.394
					c0,0,6.798,0.524,10.845,0.524c4.307,0,10.975-0.524,10.975-0.524c2.219-0.13,2.482,3.131,0.263,3.394
					c0,0-2.233,0.261-4.712,0.391l14.881,44.264l4.107-13.724C173.993,89.67,175.039,85.233,175.039,81.709z M147.965,87.39
					l-12.356,35.899c3.69,1.085,7.592,1.678,11.633,1.678c4.797,0,9.395-0.827,13.675-2.334c-0.108-0.177-0.212-0.364-0.294-0.567
					L147.965,87.39z M183.375,64.033c0.177,1.311,0.277,2.717,0.277,4.234c0,4.177-0.783,8.874-3.133,14.748l-12.576,36.363
					c12.242-7.138,20.475-20.398,20.475-35.591C188.418,76.627,186.588,69.897,183.375,64.033z"/>
				<g>
					<path fill="#CC6666" d="M99.241,83.787c0,26.469,21.533,48.002,48,48.002c26.469,0,48-21.533,48-48.002
						c0-26.467-21.531-47.999-48-47.999C120.774,35.789,99.241,57.32,99.241,83.787z M101.444,83.787
						c0-25.254,20.545-45.798,45.797-45.798c25.252,0,45.801,20.544,45.801,45.798s-20.549,45.801-45.801,45.801
						C121.989,129.588,101.444,109.041,101.444,83.787z"/>
				</g>
			</g>
		</g>
		<g id="Layer_3" display="inline">
			<rect x="-0.083" y="0.365" fill="#FFFFFF" width="294" height="167.579"/>
			<g>
				<g>
					<polygon fill="#CC6666" points="131.537,40.423 131.537,36 120.99,36 120.99,48.929 131.537,48.929 131.537,44.506 
						125.412,44.506 125.412,40.423 					"/>
					<polygon fill="#CC6666" points="146.508,36 135.96,36 135.96,40.54 140.361,44.506 135.96,44.506 135.96,48.929 
						146.508,48.929 146.508,44.624 142.506,40.423 146.508,40.423 					"/>
					<polygon fill="#CC6666" points="161.818,36 151.271,36 151.271,40.54 155.502,44.506 151.271,44.506 151.271,48.929 
						161.818,48.929 161.818,44.624 157.646,40.423 161.818,40.423 					"/>
				</g>
				<polygon fill="#CC6666" points="113.572,124.285 107.38,54.831 175.428,54.831 169.229,124.274 141.362,132 				"/>
				<polygon fill="#FF9999" points="141.461,126.091 163.949,119.903 169.219,60.615 141.461,60.615 				"/>
				<polygon fill="#B3B3B3" points="121.555,86.133 122.301,94.638 141.461,86.133 141.461,77.612 				"/>
				<polygon fill="#E6E6E6" points="162.682,68.518 141.461,77.612 141.461,86.133 161.949,77.024 				"/>
				<polygon fill="#E6E6E6" points="141.461,108.388 141.396,108.397 131.893,105.847 131.272,99.062 122.721,99.062 
					123.914,112.429 141.393,117.267 141.461,117.251 				"/>
				<polygon fill="#FFFFFF" points="141.461,86.133 141.461,94.638 151.863,94.638 150.918,105.759 141.461,108.396 
					141.461,117.258 158.883,112.418 161.176,86.133 				"/>
				<polygon fill="#E6E6E6" points="141.461,86.133 121.555,86.133 122.301,94.638 141.461,94.638 				"/>
				<polygon fill="#E6E6E6" points="141.461,77.024 141.461,68.518 141.375,68.518 120.043,68.518 120.798,77.024 				"/>
				<polygon fill="#FFFFFF" points="141.461,68.518 141.461,76.917 141.461,77.024 161.949,77.024 162.682,68.518 				"/>
			</g>
		</g>
		<g id="Layer_4" display="inline">
			<rect x="-0.083" y="0.365" fill="#FFFFFF" width="294" height="167.579"/>
			<g>
				<path fill="#CC6666" d="M146.875,132.155l-27.775-7.711l-6.189-69.423h68.012l-6.194,69.412L146.875,132.155z"/>
				<path fill="#FF9999" d="M169.422,120.015l5.295-59.315h-27.8v65.555L169.422,120.015z"/>
				<path fill="#EBEBEB" d="M146.917,94.96v-8.516H135.65l-0.779-8.718h12.046v-8.515h-0.03h-21.32l0.203,2.285l2.093,23.463
					L146.917,94.96L146.917,94.96z"/>
				<path fill="#EBEBEB" d="M146.917,108.56l-0.038,0.01l-9.482-2.562l-0.605-6.791h-4.607h-3.939l1.193,13.369l17.439,4.843
					l0.04-0.012L146.917,108.56L146.917,108.56z"/>
				<path fill="#CC6666" d="M119.238,36.155h4.327v4.274h3.958v-4.274h4.327v12.946h-4.327v-4.335h-3.958v4.335h-4.327V36.155
					L119.238,36.155z"/>
				<path fill="#CC6666" d="M137.541,40.448h-3.81v-4.292h11.947v4.292h-3.811v8.653h-4.327L137.541,40.448L137.541,40.448z"/>
				<path fill="#CC6666" d="M147.574,36.155h4.513l2.774,4.548l2.771-4.548h4.516v12.946h-4.312v-6.416l-2.977,4.602h-0.074
					l-2.979-4.602v6.416h-4.233L147.574,36.155L147.574,36.155z"/>
				<path fill="#CC6633" d="M164.301,36.155h4.329v8.667h6.085v4.279h-10.414V36.155L164.301,36.155z"/>
				<path fill="#FFFFFF" d="M166.68,86.444h-2.295h-17.498v8.516h10.484l-0.988,11.042l-9.496,2.563v8.856l17.455-4.838l0.129-1.438
					l2-22.416L166.68,86.444z"/>
				<path fill="#FFFFFF" d="M168.217,69.212h-21.33V74.5v3.207v0.02h20.539l0,0h0.028l0.169-1.914l0.389-4.316L168.217,69.212z"/>
			</g>
		</g>
		<g id="Layer_2" display="inline">
			<rect x="-0.083" y="0.365" fill="#FFFFFF" width="294" height="167.579"/>
			<g>
				<polygon fill="#CC6666" points="181.016,52.691 146.917,52.691 146.917,52.691 112.816,52.691 119.207,122.021 146.917,129.876 
					146.917,129.876 146.917,129.876 146.917,129.876 146.917,129.876 174.615,122.021 				"/>
				<polygon opacity="0.6" fill="#FF9999" enable-background="new    " points="146.917,58.338 146.917,124.005 146.917,124.005 
					169.354,117.644 174.818,58.338 				"/>
				<polygon fill="#FFFFFF" points="164.77,66.846 130.256,66.846 127.857,92.806 127.908,92.642 157.225,92.642 156.268,103.622 
					146.917,106.317 137.422,103.582 136.853,96.937 128.233,96.937 129.465,110.216 146.917,115.172 164.368,110.216 
					166.77,84.155 135.662,84.155 136.059,75.465 157.65,75.465 157.968,80.439 166.664,80.439 				"/>
				<g>
					<path fill="#EBEAEA" d="M146.917,66.846h-16.661l-2.398,25.959l0.051-0.164h19.009v-8.485h-10.055l0.396-8.69h9.659
						L146.917,66.846L146.917,66.846z M136.853,96.937h-8.619l1.231,13.279l17.452,4.945v-8.844l-9.495-2.735L136.853,96.937z"/>
				</g>
				<g>
					<polygon fill="#CC6666" points="140.28,42.464 134.215,42.464 134.215,46.82 140.28,46.82 143.527,46.82 144.625,46.82 
						144.625,33.876 140.28,33.876 					"/>
					<path fill="#CC6666" d="M159.618,33.942h-10.579c0,0,0,2.275,0,4.533c1.414,1.415,2.154,2.092,4.201,4.14
						c-1.197,0-4.201,0.004-4.201,0.004v4.135h10.579v-4.136l-4.226-4.143h4.226V33.942z"/>
				</g>
			</g>
		</g>
		<g id="Layer_6" display="inline">
			<g>
				<path fill="#CC6666" d="M147,35.772c-27.187,0-49.233,22.042-49.233,49.233c0,21.753,14.106,40.206,33.669,46.719
					c2.46,0.455,3.363-1.07,3.363-2.371c0-1.174-0.045-5.052-0.066-9.164c-13.696,2.979-16.587-5.81-16.587-5.81
					c-2.239-5.69-5.467-7.204-5.467-7.204c-4.467-3.056,0.338-2.994,0.338-2.994c4.943,0.348,7.547,5.075,7.547,5.075
					c4.391,7.525,11.517,5.351,14.327,4.093c0.441-3.182,1.717-5.354,3.126-6.584c-10.937-1.244-22.433-5.467-22.433-24.332
					c0-5.374,1.924-9.767,5.073-13.215c-0.511-1.24-2.196-6.248,0.478-13.029c0,0,4.135-1.323,13.542,5.047
					c3.928-1.091,8.14-1.638,12.323-1.657c4.184,0.02,8.398,0.566,12.333,1.657c9.397-6.37,13.526-5.047,13.526-5.047
					c2.68,6.781,0.994,11.789,0.481,13.029c3.157,3.448,5.066,7.841,5.066,13.215c0,18.91-11.519,23.073-22.48,24.292
					c1.769,1.525,3.341,4.522,3.341,9.115c0,6.59-0.059,11.891-0.059,13.512c0,1.312,0.887,2.847,3.382,2.362
					c19.554-6.519,33.642-24.966,33.642-46.711C196.232,57.814,174.189,35.772,147,35.772z"/>
				<path fill="#CC6666" d="M109.484,111.597c-0.133,0.301-0.605,0.391-1.035,0.186c-0.438-0.197-0.684-0.605-0.542-0.906
					c0.13-0.311,0.603-0.396,1.04-0.188C109.386,110.882,109.636,111.296,109.484,111.597L109.484,111.597z"/>
				<path fill="#CC6666" d="M111.931,114.325c-0.288,0.266-0.852,0.143-1.233-0.279c-0.396-0.422-0.469-0.984-0.177-1.256
					c0.297-0.266,0.843-0.141,1.238,0.279C112.154,113.495,112.231,114.054,111.931,114.325L111.931,114.325z"/>
				<path fill="#CC6666" d="M114.312,117.802c-0.37,0.258-0.976,0.018-1.35-0.52c-0.37-0.537-0.37-1.182,0.009-1.439
					c0.374-0.258,0.971-0.025,1.35,0.506C114.689,116.896,114.689,117.54,114.312,117.802L114.312,117.802z"/>
				<path fill="#CC6666" d="M117.573,121.163c-0.331,0.365-1.036,0.266-1.552-0.232c-0.528-0.486-0.675-1.178-0.344-1.543
					c0.336-0.365,1.045-0.262,1.564,0.232C117.767,120.106,117.926,120.802,117.573,121.163L117.573,121.163z"/>
				<path fill="#CC6666" d="M122.073,123.114c-0.146,0.473-0.825,0.688-1.509,0.486c-0.684-0.207-1.13-0.764-0.992-1.238
					c0.142-0.479,0.824-0.701,1.513-0.486C121.768,122.083,122.215,122.632,122.073,123.114L122.073,123.114z"/>
				<path fill="#CC6666" d="M127.016,123.476c0.017,0.498-0.563,0.91-1.281,0.92c-0.722,0.018-1.307-0.387-1.314-0.877
					c0-0.504,0.567-0.912,1.289-0.924C126.427,122.581,127.016,122.981,127.016,123.476L127.016,123.476z"/>
				<path fill="#CC6666" d="M131.614,122.692c0.086,0.486-0.413,0.982-1.126,1.117c-0.701,0.129-1.35-0.172-1.439-0.652
					c-0.087-0.498,0.421-0.998,1.121-1.127C130.884,121.907,131.523,122.198,131.614,122.692L131.614,122.692z"/>
			</g>
		</g>
		<g id="Layer_5" display="inline">
			<g>
				<path fill="#FF9999" d="M168.333,41.481"/>
				<ellipse fill="none" stroke="#CC6666" stroke-width="4" stroke-miterlimit="10" cx="147" cy="83.957" rx="48" ry="18.667"/>
				
					<ellipse transform="matrix(-0.5201 0.8541 -0.8541 -0.5201 295.1731 2.0792)" fill="none" stroke="#CC6666" stroke-width="4" stroke-miterlimit="10" cx="147.002" cy="83.964" rx="48.001" ry="18.668"/>
				
					<ellipse transform="matrix(0.5217 0.8531 -0.8531 0.5217 141.9371 -85.2479)" fill="none" stroke="#CC6666" stroke-width="4" stroke-miterlimit="10" cx="146.997" cy="83.962" rx="47.999" ry="18.666"/>
				<circle fill="#CC6666" cx="146.504" cy="83.753" r="9.029"/>
			</g>
		</g>
		<g id="Layer_7" display="inline">
			<g>
				<path fill="#CC6666" d="M101.967,39.985h90.065v87.61h-90.065V39.985z M97.873,131.688h98.255V35.891H97.873V131.688z
					 M162.229,70.035c0-0.328,0.123-0.492,0.49-0.492h6.428c0.328,0,0.492,0.124,0.492,0.492v32.301c0,0.326-0.082,0.49-0.492,0.49
					h-6.346c-0.408,0-0.531-0.203-0.531-0.531v-32.26H162.229L162.229,70.035z M161.777,60.741c0-2.62,1.843-4.176,4.177-4.176
					c2.498,0,4.176,1.679,4.176,4.176c0,2.702-1.76,4.176-4.258,4.176C163.499,64.917,161.777,63.443,161.777,60.741z
					 M143.356,83.503c-1.146-4.544-3.848-14.452-4.872-19.241h-0.082c-0.86,4.79-3.03,12.895-4.75,19.241H143.356z M131.975,90.138
					l-3.234,12.28c-0.082,0.326-0.204,0.408-0.614,0.408h-6.018c-0.409,0-0.491-0.121-0.409-0.613l11.626-40.694
					c0.205-0.737,0.328-1.391,0.409-3.398c0-0.286,0.124-0.409,0.328-0.409h8.598c0.287,0,0.41,0.083,0.491,0.409l13.018,44.174
					c0.084,0.326,0,0.531-0.326,0.531h-6.796c-0.327,0-0.532-0.082-0.614-0.367l-3.355-12.321H131.975L131.975,90.138z"/>
			</g>
		</g>
		<g id="Layer_8" display="inline">
			<g>
				<path fill="#CC6666" d="M193.2,90.974c-4.464,0.022-8.345,1.098-11.593,2.688c-1.19-2.36-2.383-4.464-2.594-6.006
					c-0.234-1.802-0.516-2.898-0.234-5.047c0.281-2.15,1.543-5.212,1.52-5.446c-0.023-0.233-0.279-1.332-2.851-1.355
					c-2.571-0.022-4.791,0.491-5.048,1.169c-0.258,0.678-0.748,2.22-1.075,3.81c-0.444,2.337-5.142,10.679-7.829,15.05
					c-0.865-1.706-1.612-3.202-1.775-4.395c-0.234-1.801-0.515-2.897-0.234-5.049c0.281-2.148,1.544-5.209,1.521-5.443
					c-0.022-0.234-0.278-1.333-2.852-1.356c-2.57-0.023-4.791,0.491-5.05,1.169c-0.256,0.678-0.537,2.267-1.073,3.809
					c-0.537,1.54-6.777,15.472-8.413,19.069c-0.841,1.846-1.565,3.318-2.08,4.323l0,0c0,0-0.023,0.07-0.093,0.188
					c-0.444,0.863-0.701,1.332-0.701,1.332s0,0,0,0.021c-0.351,0.633-0.724,1.217-0.911,1.217c-0.141,0-0.397-1.685,0.046-3.975
					c0.935-4.838,3.155-12.361,3.132-12.62c0-0.142,0.42-1.448-1.449-2.127c-1.823-0.678-2.477,0.442-2.641,0.442
					c-0.163,0-0.28,0.397-0.28,0.397s2.033-8.46-3.879-8.46c-3.692,0-8.788,4.043-11.312,7.689c-1.589,0.863-4.978,2.711-8.6,4.697
					c-1.379,0.771-2.805,1.543-4.137,2.268c-0.094-0.096-0.187-0.211-0.281-0.305c-7.151-7.644-20.379-13.041-19.818-23.3
					c0.21-3.738,1.496-13.555,25.404-25.474c19.678-9.698,35.334-7.011,38.045-1.052c3.879,8.507-8.391,24.306-28.723,26.596
					c-7.759,0.865-11.826-2.127-12.854-3.248c-1.075-1.169-1.238-1.238-1.636-1.005c-0.654,0.351-0.234,1.401,0,2.01
					c0.607,1.589,3.108,4.394,7.338,5.772c3.739,1.215,12.831,1.894,23.838-2.36c12.316-4.768,21.945-18.019,19.117-29.12
					c-2.828-11.264-21.522-14.979-39.214-8.693c-10.517,3.739-21.921,9.629-30.125,17.294c-9.746,9.114-11.288,17.037-10.657,20.355
					c2.267,11.779,18.51,19.444,25.007,25.124c-0.328,0.188-0.631,0.352-0.888,0.49c-3.249,1.613-15.635,8.087-18.72,14.934
					c-3.506,7.76,0.561,13.322,3.249,14.07c8.343,2.312,16.92-1.848,21.524-8.718c4.604-6.871,4.043-15.8,1.917-19.89
					c-0.023-0.048-0.047-0.095-0.093-0.141c0.841-0.491,1.706-1.006,2.547-1.496c1.659-0.98,3.295-1.895,4.697-2.641
					c-0.794,2.173-1.379,4.768-1.659,8.507c-0.351,4.396,1.449,10.096,3.81,12.339c1.051,0.98,2.29,1.006,3.085,1.006
					c2.757,0,3.996-2.291,5.375-5.001c1.683-3.317,3.202-7.176,3.202-7.176s-1.893,10.423,3.249,10.423
					c1.87,0,3.762-2.43,4.604-3.668v0.021c0,0,0.046-0.069,0.14-0.232c0.187-0.305,0.304-0.489,0.304-0.489v-0.048
					c0.748-1.309,2.43-4.275,4.932-9.209c3.227-6.355,6.334-14.302,6.334-14.302s0.278,1.938,1.237,5.164
					c0.562,1.895,1.729,3.974,2.664,5.981c-0.748,1.053-1.217,1.637-1.217,1.637s0,0,0.022,0.022
					c-0.604,0.796-1.262,1.659-1.986,2.501c-2.547,3.038-5.584,6.521-6.006,7.525c-0.489,1.191-0.373,2.057,0.562,2.758
					c0.68,0.514,1.895,0.584,3.132,0.514c2.29-0.162,3.902-0.725,4.697-1.074c1.237-0.443,2.688-1.121,4.044-2.127
					c2.5-1.847,4.021-4.486,3.88-7.969c-0.069-1.918-0.702-3.834-1.473-5.634c0.231-0.327,0.442-0.653,0.678-0.981
					c3.949-5.771,7.011-12.104,7.011-12.104s0.28,1.938,1.239,5.165c0.467,1.637,1.425,3.412,2.269,5.145
					c-3.718,3.014-6.008,6.52-6.824,8.811c-1.475,4.253-0.328,6.17,1.846,6.613c0.982,0.209,2.385-0.258,3.412-0.701
					c1.311-0.422,2.852-1.146,4.324-2.221c2.5-1.848,4.908-4.416,4.768-7.898c-0.07-1.59-0.49-3.155-1.074-4.674
					c3.154-1.309,7.221-2.034,12.408-1.426c11.125,1.309,13.32,8.25,12.9,11.17c-0.42,2.922-2.758,4.512-3.528,5.002
					s-1.028,0.654-0.958,1.006c0.094,0.514,0.469,0.49,1.121,0.396c0.91-0.163,5.843-2.36,6.054-7.735
					C211.312,98.403,204.77,90.901,193.2,90.974L193.2,90.974z M107.383,119.905c-3.692,4.02-8.834,5.539-11.054,4.254
					c-2.384-1.379-1.449-7.315,3.085-11.568c2.758-2.595,6.31-5.002,8.67-6.474c0.538-0.327,1.332-0.796,2.29-1.38
					c0.164-0.094,0.257-0.141,0.257-0.141l0,0c0.187-0.117,0.374-0.232,0.561-0.352
					C112.852,110.323,111.263,115.676,107.383,119.905L107.383,119.905z M134.259,101.63c-1.285,3.131-3.973,11.146-5.609,10.703
					c-1.402-0.373-2.267-6.45-0.28-12.456c1.005-3.015,3.132-6.612,4.371-8.017c2.01-2.243,4.23-2.991,4.768-2.079
					C138.186,90.974,135.054,99.667,134.259,101.63L134.259,101.63z M156.438,112.24c-0.537,0.28-1.051,0.467-1.285,0.325
					c-0.161-0.092,0.234-0.467,0.234-0.467s2.78-2.99,3.879-4.348c0.633-0.795,1.381-1.729,2.174-2.779v0.303
					C161.439,108.851,157.98,111.258,156.438,112.24L156.438,112.24z M173.546,108.337c-0.397-0.279-0.328-1.215,1.004-4.137
					c0.515-1.146,1.729-3.062,3.812-4.907c0.231,0.748,0.396,1.472,0.373,2.149C178.711,105.953,175.484,107.636,173.546,108.337
					L173.546,108.337z"/>
			</g>
		</g>
	</g>
	<g id="Layer_2_1_" display="inline">
		<g>
			<path fill="#CC6666" d="M147,36.894c-26.552,0-48.084,21.526-48.084,48.083c0,21.244,13.777,39.269,32.883,45.627
				c2.403,0.444,3.285-1.043,3.285-2.313c0-1.146-0.044-4.935-0.065-8.951c-13.377,2.908-16.2-5.674-16.2-5.674
				c-2.188-5.56-5.339-7.035-5.339-7.035c-4.363-2.983,0.329-2.924,0.329-2.924c4.828,0.339,7.371,4.956,7.371,4.956
				c4.289,7.35,11.249,5.227,13.993,3.997c0.432-3.107,1.678-5.229,3.053-6.431c-10.68-1.215-21.908-5.34-21.908-23.764
				c0-5.25,1.878-9.539,4.955-12.906c-0.499-1.212-2.145-6.103,0.466-12.726c0,0,4.038-1.292,13.226,4.93
				c3.836-1.066,7.95-1.601,12.036-1.619c4.086,0.019,8.203,0.553,12.046,1.619c9.178-6.222,13.21-4.93,13.21-4.93
				c2.617,6.623,0.972,11.514,0.472,12.726c3.084,3.367,4.948,7.656,4.948,12.906c0,18.469-11.247,22.534-21.956,23.725
				c1.725,1.492,3.262,4.42,3.262,8.904c0,6.434-0.056,11.612-0.056,13.195c0,1.279,0.865,2.779,3.304,2.309
				c19.095-6.365,32.854-24.385,32.854-45.621C195.084,58.42,173.557,36.894,147,36.894z"/>
			<path fill="#CC6666" d="M117.128,105.931c-0.105,0.24-0.482,0.312-0.824,0.146c-0.349-0.157-0.544-0.48-0.432-0.723
				c0.104-0.244,0.48-0.312,0.828-0.149C117.05,105.362,117.249,105.69,117.128,105.931L117.128,105.931z"/>
			<path fill="#CC6666" d="M119.076,108.104c-0.229,0.211-0.678,0.112-0.982-0.223c-0.315-0.336-0.373-0.783-0.141-1
				c0.236-0.212,0.671-0.111,0.986,0.223C119.254,107.442,119.315,107.888,119.076,108.104L119.076,108.104z"/>
			<path fill="#CC6666" d="M120.972,110.872c-0.295,0.205-0.777,0.014-1.075-0.414c-0.294-0.428-0.294-0.939,0.007-1.146
				c0.298-0.205,0.772-0.021,1.074,0.402C121.272,110.149,121.272,110.663,120.972,110.872L120.972,110.872z"/>
			<path fill="#CC6666" d="M123.569,113.549c-0.264,0.29-0.825,0.211-1.235-0.187c-0.421-0.387-0.538-0.938-0.274-1.229
				c0.268-0.291,0.832-0.208,1.246,0.186C123.723,112.707,123.85,113.261,123.569,113.549L123.569,113.549z"/>
			<path fill="#CC6666" d="M127.152,115.103c-0.117,0.377-0.657,0.547-1.201,0.388c-0.544-0.165-0.9-0.606-0.79-0.986
				c0.113-0.379,0.656-0.558,1.205-0.387C126.909,114.281,127.265,114.718,127.152,115.103L127.152,115.103z"/>
			<path fill="#CC6666" d="M131.087,115.39c0.013,0.396-0.449,0.726-1.02,0.732c-0.575,0.013-1.041-0.309-1.047-0.698
				c0-0.401,0.452-0.727,1.026-0.735C130.619,114.679,131.087,114.996,131.087,115.39L131.087,115.39z"/>
			<path fill="#CC6666" d="M134.749,114.767c0.068,0.387-0.329,0.783-0.896,0.89c-0.558,0.104-1.075-0.138-1.146-0.519
				c-0.069-0.397,0.335-0.796,0.893-0.897C134.167,114.142,134.677,114.373,134.749,114.767L134.749,114.767z"/>
		</g>
	</g>
</g>
<g id="Layer_2_2_">
	<rect x="211.168" y="5.803" fill="none" width="79.832" height="33.082"/>
	<text transform="matrix(1 0 0 1 232.8311 32.4785)"><tspan x="0" y="0" fill="#FFFFFF" font-family="'Slabo27px-Regular'" font-size="36" letter-spacing="-2">S</tspan><tspan x="15.173" y="0" fill="#FFFFFF" font-family="'Slabo27px-Regular'" font-size="36">K</tspan></text>
</g>
<g id="Layer_3_1_" display="none">
	<polygon display="inline" opacity="0.5" fill="#803359" points="174.49,35.086 170.823,39.033 168.051,35.592 171.743,31.617 	"/>
</g>
</svg>
