<?xml version="1.0" encoding="utf-8"?>
<!-- Generator: Adobe Illustrator 16.0.4, SVG Export Plug-In . SVG Version: 6.00 Build 0)  -->
<!DOCTYPE svg PUBLIC "-//W3C//DTD SVG 1.1//EN" "http://www.w3.org/Graphics/SVG/1.1/DTD/svg11.dtd">
<svg version="1.1" xmlns="http://www.w3.org/2000/svg" xmlns:xlink="http://www.w3.org/1999/xlink" x="0px" y="0px" width="294px"
	 height="167.58px" viewBox="0 0 294 167.58" enable-background="new 0 0 294 167.58" xml:space="preserve">
<g id="Layer_1" display="none">
	<g display="inline">
		<rect fill="#FFFFFF" width="294" height="167.58"/>
		<path fill="#CC6666" d="M106.065,83.787c0,16.297,9.471,30.385,23.207,37.059L109.631,67.03
			C107.347,72.15,106.065,77.818,106.065,83.787z M175.039,81.709c0-5.09-1.829-8.613-3.396-11.355
			c-2.087-3.394-4.043-6.264-4.043-9.658c0-3.785,2.869-7.308,6.914-7.308c0.184,0,0.356,0.022,0.533,0.033
			c-7.325-6.712-17.087-10.811-27.807-10.811c-14.385,0-27.041,7.382-34.404,18.559c0.968,0.032,1.879,0.051,2.65,0.051
			c4.307,0,10.976-0.524,10.976-0.524c2.219-0.13,2.479,3.131,0.263,3.394c0,0-2.232,0.261-4.711,0.391l14.993,44.604l9.011-27.025
			l-6.414-17.578c-2.219-0.129-4.318-0.391-4.318-0.391c-2.219-0.131-1.96-3.524,0.261-3.394c0,0,6.798,0.524,10.845,0.524
			c4.307,0,10.975-0.524,10.975-0.524c2.219-0.13,2.482,3.131,0.263,3.394c0,0-2.233,0.261-4.712,0.391l14.881,44.264l4.107-13.723
			C173.993,89.67,175.039,85.234,175.039,81.709z M147.965,87.389l-12.356,35.9c3.69,1.085,7.592,1.678,11.633,1.678
			c4.797,0,9.395-0.828,13.675-2.334c-0.108-0.177-0.212-0.364-0.294-0.568L147.965,87.389z M183.375,64.033
			c0.177,1.311,0.277,2.717,0.277,4.234c0,4.177-0.783,8.874-3.133,14.748l-12.576,36.363c12.243-7.138,20.475-20.399,20.475-35.591
			C188.418,76.627,186.588,69.897,183.375,64.033z"/>
		<g>
			<path fill="#CC6666" d="M99.241,83.787c0,26.469,21.533,48.002,48,48.002c26.469,0,48-21.533,48-48.002
				c0-26.467-21.531-47.999-48-47.999C120.774,35.789,99.241,57.32,99.241,83.787z M101.444,83.787
				c0-25.254,20.545-45.798,45.797-45.798s45.801,20.544,45.801,45.798s-20.549,45.801-45.801,45.801
				S101.444,109.041,101.444,83.787z"/>
		</g>
	</g>
</g>
<g id="Layer_3" display="none">
	<rect x="-0.083" y="0.365" display="inline" fill="#FFFFFF" width="294" height="167.58"/>
	<g display="inline">
		<g>
			<polygon fill="#CC6666" points="131.537,40.423 131.537,36 120.99,36 120.99,48.929 131.537,48.929 131.537,44.506 
				125.412,44.506 125.412,40.423 			"/>
			<polygon fill="#CC6666" points="146.508,36 135.96,36 135.96,40.54 140.361,44.506 135.96,44.506 135.96,48.929 146.508,48.929 
				146.508,44.624 142.506,40.423 146.508,40.423 			"/>
			<polygon fill="#CC6666" points="161.818,36 151.271,36 151.271,40.54 155.502,44.506 151.271,44.506 151.271,48.929 
				161.818,48.929 161.818,44.624 157.646,40.423 161.818,40.423 			"/>
		</g>
		<polygon fill="#CC6666" points="113.572,124.285 107.38,54.831 175.428,54.831 169.229,124.274 141.362,132 		"/>
		<polygon fill="#FF9999" points="141.461,126.091 163.949,119.904 169.219,60.615 141.461,60.615 		"/>
		<polygon fill="#B3B3B3" points="121.555,86.133 122.301,94.638 141.461,86.133 141.461,77.612 		"/>
		<polygon fill="#E6E6E6" points="162.682,68.518 141.461,77.612 141.461,86.133 161.949,77.024 		"/>
		<polygon fill="#E6E6E6" points="141.461,108.387 141.396,108.397 131.893,105.846 131.272,99.061 122.721,99.061 123.914,112.428 
			141.393,117.267 141.461,117.251 		"/>
		<polygon fill="#FFFFFF" points="141.461,86.133 141.461,94.638 151.864,94.638 150.918,105.759 141.461,108.395 141.461,117.258 
			158.883,112.418 161.176,86.133 		"/>
		<polygon fill="#E6E6E6" points="141.461,86.133 121.555,86.133 122.301,94.638 141.461,94.638 		"/>
		<polygon fill="#E6E6E6" points="141.461,77.024 141.461,68.518 141.375,68.518 120.043,68.518 120.798,77.024 		"/>
		<polygon fill="#FFFFFF" points="141.461,68.518 141.461,76.917 141.461,77.024 161.949,77.024 162.682,68.518 		"/>
	</g>
</g>
<g id="Layer_4" display="none">
	<rect x="-0.083" y="0.365" display="inline" fill="#FFFFFF" width="294" height="167.58"/>
	<g display="inline">
		<path fill="#CC6666" d="M146.875,132.155l-27.775-7.71l-6.189-69.424h68.012l-6.195,69.412L146.875,132.155z M146.875,132.155"/>
		<path fill="#FF9999" d="M169.422,120.014l5.295-59.316h-27.8v65.555L169.422,120.014z M169.422,120.014"/>
		<path fill="#EBEBEB" d="M146.917,94.96v-8.515H135.65l-0.779-8.719h12.046v-8.515h-0.03h-21.32l0.203,2.285l2.093,23.463H146.917z
			 M146.917,94.96"/>
		<path fill="#EBEBEB" d="M146.917,108.559l-0.038,0.01l-9.482-2.561l-0.605-6.791h-4.607h-3.939l1.193,13.369l17.439,4.842
			l0.04-0.011V108.559z M146.917,108.559"/>
		<path fill="#CC6666" d="M119.238,36.155h4.327v4.274h3.958v-4.274h4.327v12.946h-4.327v-4.335h-3.958v4.335h-4.327V36.155
			L119.238,36.155z M119.238,36.155"/>
		<path fill="#CC6666" d="M137.541,40.448h-3.81v-4.292h11.947v4.292h-3.811v8.653h-4.327V40.448L137.541,40.448z M137.541,40.448"
			/>
		<path fill="#CC6666" d="M147.574,36.155h4.513l2.775,4.548l2.772-4.548h4.514v12.946h-4.311v-6.416l-2.976,4.602h-0.075
			l-2.979-4.602v6.416h-4.234V36.155L147.574,36.155z M147.574,36.155"/>
		<path fill="#CC6633" d="M164.301,36.155h4.329v8.667h6.085v4.279h-10.414V36.155L164.301,36.155z M164.301,36.155"/>
		<path fill="#FFFFFF" d="M166.679,86.445h-2.294h-17.498v8.515h10.484l-0.988,11.042l-9.496,2.563v8.858l17.455-4.838l0.128-1.438
			l2.001-22.415L166.679,86.445z M166.679,86.445"/>
		<path fill="#FFFFFF" d="M168.217,69.212h-21.33V74.5v3.207v0.02h20.539l0,0h0.028l0.169-1.914l0.389-4.316L168.217,69.212z
			 M168.217,69.212"/>
	</g>
</g>
<g id="Layer_2" display="none">
	<rect x="-0.083" y="0.365" display="inline" fill="#FFFFFF" width="294" height="167.58"/>
	<g display="inline">
		<polygon fill="#CC6666" points="181.016,52.691 146.917,52.691 146.917,52.691 112.816,52.691 119.207,122.021 146.917,129.876 
			146.917,129.876 146.917,129.876 146.917,129.876 146.917,129.876 174.615,122.021 		"/>
		<polygon opacity="0.6" fill="#FF9999" points="146.917,58.338 146.917,124.005 146.917,124.005 169.354,117.644 174.819,58.338 		
			"/>
		<polygon fill="#FFFFFF" points="164.769,66.846 130.256,66.846 127.857,92.805 127.908,92.642 157.225,92.642 156.268,103.622 
			146.917,106.318 137.422,103.582 136.853,96.937 128.233,96.937 129.465,110.216 146.917,115.172 164.368,110.216 166.77,84.155 
			135.662,84.155 136.059,75.465 157.65,75.465 157.968,80.439 166.664,80.439 		"/>
		<g>
			<path fill="#EBEAEA" d="M146.917,66.846h-16.661l-2.398,25.959l0.051-0.163h19.009v-8.486h-10.055l0.396-8.69h9.659V66.846z
				 M136.853,96.937h-8.619l1.231,13.279l17.452,4.945v-8.843l-9.495-2.736L136.853,96.937z"/>
		</g>
		<g>
			<polygon fill="#CC6666" points="140.28,42.464 134.215,42.464 134.215,46.82 140.28,46.82 143.527,46.82 144.625,46.82 
				144.625,33.876 140.28,33.876 			"/>
			<path fill="#CC6666" d="M159.618,33.942h-10.579c0,0,0,2.275,0,4.533c1.414,1.415,2.154,2.092,4.201,4.14
				c-1.197,0-4.201,0.004-4.201,0.004v4.135h10.579v-4.136l-4.226-4.143h4.226V33.942z"/>
		</g>
	</g>
</g>
<g id="Layer_6" display="none">
	<g display="inline">
		<path fill-rule="evenodd" clip-rule="evenodd" fill="#CC6666" d="M147,35.772c-27.187,0-49.233,22.042-49.233,49.233
			c0,21.753,14.106,40.206,33.669,46.718c2.46,0.455,3.363-1.069,3.363-2.37c0-1.174-0.045-5.052-0.066-9.165
			c-13.696,2.978-16.587-5.809-16.587-5.809c-2.239-5.691-5.467-7.204-5.467-7.204c-4.467-3.056,0.338-2.994,0.338-2.994
			c4.943,0.348,7.547,5.075,7.547,5.075c4.391,7.525,11.517,5.351,14.327,4.092c0.441-3.181,1.717-5.354,3.126-6.584
			c-10.937-1.243-22.433-5.466-22.433-24.331c0-5.374,1.924-9.767,5.073-13.215c-0.511-1.24-2.196-6.248,0.478-13.029
			c0,0,4.135-1.323,13.542,5.047c3.928-1.091,8.14-1.638,12.323-1.657c4.184,0.02,8.399,0.566,12.333,1.657
			c9.397-6.37,13.526-5.047,13.526-5.047c2.68,6.781,0.994,11.789,0.483,13.029c3.157,3.448,5.066,7.841,5.066,13.215
			c0,18.91-11.518,23.073-22.48,24.293c1.767,1.526,3.339,4.523,3.339,9.116c0,6.588-0.057,11.89-0.057,13.511
			c0,1.311,0.886,2.846,3.382,2.363c19.552-6.518,33.641-24.966,33.641-46.711C196.233,57.814,174.19,35.772,147,35.772z"/>
		<path fill="#CC6666" d="M109.484,111.597c-0.133,0.301-0.605,0.391-1.035,0.184c-0.438-0.197-0.684-0.605-0.542-0.906
			c0.13-0.309,0.603-0.395,1.04-0.189C109.386,110.882,109.636,111.296,109.484,111.597L109.484,111.597z M108.741,111.046"/>
		<path fill="#CC6666" d="M111.931,114.325c-0.288,0.266-0.852,0.143-1.233-0.279c-0.396-0.422-0.469-0.984-0.177-1.256
			c0.297-0.266,0.843-0.141,1.238,0.279C112.154,113.495,112.231,114.054,111.931,114.325L111.931,114.325z M111.354,113.706"/>
		<path fill="#CC6666" d="M114.312,117.802c-0.37,0.258-0.976,0.018-1.35-0.52c-0.37-0.537-0.37-1.182,0.009-1.439
			c0.374-0.258,0.971-0.025,1.35,0.506C114.689,116.896,114.689,117.54,114.312,117.802L114.312,117.802z M114.312,117.802"/>
		<path fill="#CC6666" d="M117.573,121.163c-0.331,0.365-1.036,0.266-1.552-0.232c-0.528-0.486-0.675-1.178-0.344-1.543
			c0.336-0.365,1.045-0.262,1.564,0.232C117.767,120.106,117.926,120.802,117.573,121.163L117.573,121.163z M117.573,121.163"/>
		<path fill="#CC6666" d="M122.073,123.114c-0.146,0.473-0.825,0.688-1.509,0.486c-0.684-0.207-1.13-0.762-0.992-1.238
			c0.142-0.477,0.824-0.701,1.513-0.486C121.768,122.083,122.215,122.632,122.073,123.114L122.073,123.114z M122.073,123.114"/>
		<path fill="#CC6666" d="M127.016,123.476c0.017,0.498-0.563,0.91-1.281,0.92c-0.722,0.016-1.307-0.387-1.314-0.877
			c0-0.504,0.567-0.912,1.289-0.924C126.427,122.581,127.016,122.981,127.016,123.476L127.016,123.476z M127.016,123.476"/>
		<path fill="#CC6666" d="M131.614,122.692c0.086,0.486-0.413,0.984-1.126,1.117c-0.701,0.129-1.35-0.172-1.439-0.652
			c-0.087-0.498,0.421-0.998,1.121-1.127C130.884,121.907,131.523,122.198,131.614,122.692L131.614,122.692z M131.614,122.692"/>
	</g>
</g>
<g id="Layer_5" display="none">
	<g display="inline">
		<path fill="#FF9999" d="M168.333,41.481"/>
		<ellipse fill="none" stroke="#CC6666" stroke-width="4" stroke-miterlimit="10" cx="147" cy="83.957" rx="48" ry="18.667"/>
		
			<ellipse transform="matrix(0.5201 -0.8541 0.8541 0.5201 -1.1602 165.8499)" fill="none" stroke="#CC6666" stroke-width="4" stroke-miterlimit="10" cx="146.999" cy="83.957" rx="48.001" ry="18.668"/>
		
			<ellipse transform="matrix(-0.5217 -0.8531 0.8531 -0.5217 152.0568 253.1693)" fill="none" stroke="#CC6666" stroke-width="4" stroke-miterlimit="10" cx="146.999" cy="83.959" rx="48.001" ry="18.668"/>
		<circle fill="#CC6666" cx="146.504" cy="83.753" r="9.029"/>
	</g>
</g>
<g id="Layer_7" display="none">
	<g display="inline">
		<path fill="#CC6666" d="M101.967,39.985h90.065v87.61h-90.065V39.985z M97.873,131.689h98.255V35.891H97.873V131.689z
			 M162.229,70.035c0-0.328,0.123-0.492,0.49-0.492h6.428c0.328,0,0.492,0.124,0.492,0.492v32.301c0,0.326-0.082,0.49-0.492,0.49
			h-6.346c-0.408,0-0.531-0.203-0.531-0.531v-32.26H162.229L162.229,70.035z M161.778,60.741c0-2.62,1.842-4.176,4.176-4.176
			c2.498,0,4.176,1.679,4.176,4.176c0,2.702-1.76,4.176-4.258,4.176C163.499,64.917,161.778,63.443,161.778,60.741z M143.356,83.503
			c-1.146-4.544-3.848-14.452-4.872-19.241h-0.082c-0.86,4.79-3.03,12.895-4.75,19.241H143.356z M131.975,90.137l-3.234,12.281
			c-0.082,0.326-0.204,0.408-0.614,0.408h-6.018c-0.409,0-0.491-0.121-0.409-0.613l11.626-40.694
			c0.205-0.737,0.328-1.391,0.409-3.398c0-0.286,0.124-0.409,0.328-0.409h8.598c0.287,0,0.41,0.083,0.491,0.409l13.018,44.174
			c0.084,0.326,0,0.531-0.326,0.531h-6.796c-0.327,0-0.532-0.082-0.614-0.367l-3.357-12.322H131.975L131.975,90.137z"/>
	</g>
</g>
<g id="Layer_8">
	<g>
		<path fill="#CC6666" d="M193.2,90.973c-4.464,0.023-8.344,1.099-11.592,2.688c-1.191-2.36-2.384-4.464-2.595-6.006
			c-0.233-1.8-0.514-2.898-0.233-5.047c0.28-2.15,1.542-5.212,1.519-5.446c-0.023-0.233-0.279-1.332-2.851-1.355
			c-2.571-0.022-4.791,0.491-5.048,1.169s-0.748,2.22-1.075,3.81c-0.444,2.337-5.142,10.679-7.829,15.05
			c-0.865-1.706-1.612-3.202-1.776-4.394c-0.233-1.8-0.514-2.898-0.233-5.049c0.28-2.149,1.542-5.21,1.519-5.444
			c-0.023-0.234-0.279-1.333-2.852-1.356c-2.57-0.023-4.79,0.491-5.048,1.169c-0.257,0.678-0.537,2.267-1.075,3.809
			c-0.537,1.542-6.777,15.472-8.413,19.071c-0.841,1.846-1.565,3.318-2.08,4.323l0,0c0,0-0.023,0.07-0.093,0.188
			c-0.444,0.864-0.701,1.332-0.701,1.332s0,0,0,0.023c-0.351,0.631-0.724,1.215-0.911,1.215c-0.141,0-0.397-1.683,0.046-3.973
			c0.935-4.838,3.155-12.363,3.132-12.62c0-0.141,0.42-1.449-1.449-2.127c-1.823-0.678-2.477,0.444-2.641,0.444
			c-0.163,0-0.28,0.397-0.28,0.397s2.033-8.46-3.879-8.46c-3.692,0-8.788,4.043-11.312,7.689c-1.589,0.864-4.978,2.711-8.6,4.697
			c-1.379,0.771-2.805,1.543-4.137,2.268c-0.094-0.095-0.187-0.211-0.281-0.305c-7.151-7.642-20.379-13.041-19.818-23.3
			c0.21-3.738,1.496-13.555,25.404-25.474c19.678-9.698,35.336-7.011,38.046-1.052c3.88,8.507-8.39,24.306-28.722,26.596
			c-7.759,0.865-11.826-2.127-12.854-3.248c-1.075-1.169-1.238-1.238-1.636-1.005c-0.654,0.351-0.234,1.401,0,2.01
			c0.607,1.589,3.108,4.394,7.338,5.772c3.739,1.215,12.831,1.894,23.838-2.36c12.316-4.768,21.945-18.019,19.117-29.12
			c-2.828-11.264-21.524-14.98-39.216-8.693c-10.517,3.739-21.921,9.629-30.125,17.294c-9.746,9.114-11.288,17.037-10.657,20.355
			c2.267,11.779,18.51,19.444,25.007,25.124c-0.328,0.187-0.631,0.351-0.888,0.49c-3.249,1.613-15.635,8.087-18.72,14.934
			c-3.506,7.76,0.561,13.322,3.249,14.07c8.343,2.312,16.92-1.847,21.524-8.718c4.604-6.871,4.043-15.799,1.917-19.889
			c-0.023-0.047-0.047-0.094-0.093-0.14c0.841-0.491,1.706-1.006,2.547-1.496c1.659-0.981,3.295-1.894,4.697-2.641
			c-0.794,2.173-1.379,4.768-1.659,8.507c-0.351,4.394,1.449,10.096,3.81,12.339c1.051,0.982,2.29,1.006,3.085,1.006
			c2.757,0,3.996-2.291,5.375-5.001c1.683-3.319,3.202-7.176,3.202-7.176s-1.893,10.423,3.249,10.423c1.87,0,3.762-2.43,4.604-3.668
			v0.023c0,0,0.046-0.071,0.14-0.234c0.187-0.304,0.304-0.49,0.304-0.49v-0.047c0.748-1.309,2.43-4.277,4.931-9.209
			c3.226-6.356,6.334-14.302,6.334-14.302s0.279,1.939,1.238,5.164c0.561,1.894,1.729,3.974,2.664,5.983
			c-0.748,1.052-1.216,1.636-1.216,1.636s0,0,0.023,0.023c-0.606,0.795-1.262,1.659-1.986,2.501
			c-2.547,3.038-5.585,6.521-6.006,7.525c-0.49,1.191-0.374,2.057,0.561,2.758c0.679,0.514,1.894,0.584,3.132,0.514
			c2.29-0.163,3.902-0.725,4.697-1.075c1.239-0.444,2.688-1.121,4.044-2.127c2.5-1.846,4.02-4.487,3.88-7.969
			c-0.071-1.917-0.702-3.833-1.473-5.633c0.233-0.327,0.443-0.654,0.678-0.981c3.949-5.772,7.011-12.106,7.011-12.106
			s0.28,1.94,1.239,5.165c0.467,1.637,1.425,3.412,2.267,5.143c-3.716,3.015-6.006,6.52-6.824,8.811
			c-1.473,4.253-0.327,6.17,1.846,6.613c0.982,0.21,2.385-0.257,3.412-0.701c1.31-0.421,2.852-1.146,4.324-2.22
			c2.5-1.847,4.908-4.417,4.768-7.899c-0.07-1.589-0.491-3.155-1.075-4.674c3.155-1.309,7.221-2.034,12.409-1.426
			c11.125,1.309,13.321,8.25,12.9,11.171c-0.42,2.922-2.757,4.511-3.528,5.001c-0.771,0.491-1.028,0.655-0.958,1.006
			c0.094,0.514,0.468,0.49,1.121,0.397c0.911-0.164,5.843-2.361,6.054-7.736C211.312,98.404,204.769,90.902,193.2,90.973
			L193.2,90.973z M107.383,119.905c-3.692,4.02-8.834,5.539-11.054,4.254c-2.384-1.379-1.449-7.315,3.085-11.568
			c2.758-2.595,6.31-5.002,8.67-6.474c0.538-0.327,1.332-0.795,2.29-1.38c0.164-0.093,0.257-0.14,0.257-0.14l0,0
			c0.187-0.117,0.374-0.233,0.561-0.351C112.852,110.323,111.263,115.676,107.383,119.905L107.383,119.905z M134.259,101.63
			c-1.285,3.131-3.973,11.147-5.609,10.703c-1.402-0.373-2.267-6.45-0.28-12.456c1.005-3.015,3.132-6.613,4.371-8.017
			c2.01-2.243,4.23-2.991,4.768-2.079C138.186,90.973,135.054,99.667,134.259,101.63L134.259,101.63z M156.438,112.24
			c-0.537,0.28-1.051,0.467-1.285,0.326c-0.163-0.093,0.234-0.467,0.234-0.467s2.78-2.991,3.879-4.347
			c0.632-0.795,1.38-1.729,2.174-2.781v0.304C161.439,108.851,157.98,111.258,156.438,112.24L156.438,112.24z M173.546,108.337
			c-0.397-0.28-0.328-1.215,1.004-4.137c0.515-1.146,1.73-3.062,3.811-4.907c0.232,0.748,0.397,1.472,0.374,2.149
			C178.711,105.953,175.485,107.636,173.546,108.337L173.546,108.337z"/>
	</g>
</g>
</svg>
