<?xml version="1.0" encoding="utf-8"?>
<!-- Generator: Adobe Illustrator 16.0.4, SVG Export Plug-In . SVG Version: 6.00 Build 0)  -->
<!DOCTYPE svg PUBLIC "-//W3C//DTD SVG 1.1//EN" "http://www.w3.org/Graphics/SVG/1.1/DTD/svg11.dtd">
<svg version="1.1" id="Layer_1" xmlns="http://www.w3.org/2000/svg" xmlns:xlink="http://www.w3.org/1999/xlink" x="0px" y="0px"
	 width="294px" height="167.58px" viewBox="0 0 294 167.58" enable-background="new 0 0 294 167.58" xml:space="preserve">
<g>
	<rect fill="#FFFFFF" width="294" height="167.58"/>
	<path d="M106.065,83.787c0,16.297,9.471,30.385,23.207,37.059L109.631,67.03C107.347,72.15,106.065,77.818,106.065,83.787z
		 M175.039,81.709c0-5.09-1.829-8.613-3.396-11.355c-2.087-3.394-4.043-6.264-4.043-9.658c0-3.785,2.869-7.308,6.914-7.308
		c0.184,0,0.356,0.022,0.533,0.033c-7.325-6.712-17.087-10.811-27.807-10.811c-14.385,0-27.041,7.382-34.404,18.559
		c0.968,0.032,1.879,0.051,2.65,0.051c4.307,0,10.976-0.524,10.976-0.524c2.219-0.13,2.479,3.131,0.263,3.394
		c0,0-2.232,0.261-4.711,0.391l14.993,44.604l9.011-27.025l-6.414-17.578c-2.219-0.129-4.318-0.391-4.318-0.391
		c-2.219-0.131-1.96-3.524,0.261-3.394c0,0,6.798,0.524,10.845,0.524c4.307,0,10.975-0.524,10.975-0.524
		c2.219-0.13,2.482,3.131,0.263,3.394c0,0-2.233,0.261-4.712,0.391l14.881,44.264l4.107-13.723
		C173.993,89.67,175.039,85.234,175.039,81.709z M147.965,87.389l-12.356,35.9c3.69,1.085,7.592,1.678,11.633,1.678
		c4.797,0,9.395-0.828,13.675-2.334c-0.108-0.177-0.212-0.364-0.294-0.568L147.965,87.389z M183.375,64.033
		c0.177,1.311,0.277,2.717,0.277,4.234c0,4.177-0.783,8.874-3.133,14.748l-12.576,36.363c12.243-7.138,20.475-20.399,20.475-35.591
		C188.418,76.627,186.588,69.897,183.375,64.033z"/>
	<g>
		<path d="M99.241,83.787c0,26.469,21.533,48.002,48,48.002c26.469,0,48-21.533,48-48.002c0-26.467-21.531-47.999-48-47.999
			C120.774,35.789,99.241,57.32,99.241,83.787z M101.444,83.787c0-25.254,20.545-45.798,45.797-45.798s45.801,20.544,45.801,45.798
			s-20.549,45.801-45.801,45.801S101.444,109.041,101.444,83.787z"/>
	</g>
</g>
</svg>
